# xmcd
#
# Track frame offsets:
#	187
#	47360
#	61762
#	97375
#	126600
#	144922
#	171150
#	188817
#	207975
#
# Disc length: 3093 seconds
#
# Revision: 2
# Processed by: cddbd v1.5.1PL0 Copyright (c) Steve Scherf et al.
# Submitted via: CDmax 2.0
#
DISCID=830c1309
DTITLE=Drink Small - Electric Blues Doctor Live
DYEAR=1994
DGENRE=Blues
TTITLE0=Stormy Monday Blues
TTITLE1=I Feel Good
TTITLE2=Three O'Clock in the Morning
TTITLE3=The Things I Used to Do I Don't Do No More
TTITLE4=I Really Don't Want to Know
TTITLE5=Charleston Woman
TTITLE6=Instrumental
TTITLE7=I'm in Love With a Grandma
TTITLE8=Shout
EXTD=
EXTT0=
EXTT1=
EXTT2=
EXTT3=
EXTT4=
EXTT5=
EXTT6=
EXTT7=
EXTT8=
PLAYORDER=
